<?xml version="1.0" standalone="no"?>
<!DOCTYPE svg PUBLIC "-//W3C//DTD SVG 20010904//EN"
 "http://www.w3.org/TR/2001/REC-SVG-20010904/DTD/svg10.dtd">
<svg version="1.0" xmlns="http://www.w3.org/2000/svg"
 width="3202.000000pt" height="3202.000000pt" viewBox="0 0 3202.000000 3202.000000"
 preserveAspectRatio="xMidYMid meet">
<metadata>
Created by potrace 1.11, written by Peter Selinger 2001-2013
</metadata>
<g transform="translate(0.000000,3202.000000) scale(0.100000,-0.100000)"
fill="#000000" stroke="none">
<path d="M16007 31997 c-13 -21 -302 -380 -431 -537 -167 -203 -222 -269 -251
-305 -124 -149 -403 -494 -470 -579 -16 -21 -34 -44 -40 -50 -5 -6 -30 -38
-55 -71 -25 -33 -48 -62 -51 -65 -3 -3 -31 -39 -62 -80 -31 -41 -60 -79 -64
-85 -9 -11 -126 -169 -149 -200 -8 -11 -32 -45 -54 -75 -512 -712 -1061 -1664
-1419 -2465 -10 -22 -28 -62 -41 -89 -35 -80 -150 -356 -175 -421 -12 -33 -43
-114 -68 -180 -171 -449 -325 -971 -431 -1460 -19 -88 -37 -173 -40 -190 -2
-16 -18 -109 -35 -205 -32 -186 -34 -197 -51 -330 -16 -126 -19 -149 -25 -215
-3 -33 -8 -76 -10 -95 -4 -35 -11 -115 -20 -225 -25 -304 -25 -1125 -1 -1275
3 -14 7 -63 11 -110 3 -47 8 -98 9 -115 2 -16 7 -61 10 -99 4 -38 8 -79 11
-90 2 -12 7 -46 10 -76 3 -30 7 -66 9 -80 3 -14 7 -47 11 -74 3 -27 13 -87 21
-135 8 -47 17 -99 20 -116 2 -16 6 -41 9 -55 3 -14 7 -38 10 -55 2 -16 14 -75
26 -130 11 -55 23 -109 25 -120 2 -11 6 -31 9 -45 3 -14 7 -34 9 -45 2 -11 14
-60 26 -110 12 -49 23 -97 25 -105 7 -35 60 -227 107 -390 119 -413 264 -813
467 -1288 293 -683 501 -1189 675 -1642 46 -118 87 -224 91 -235 5 -11 9 -22
10 -25 1 -3 5 -14 10 -25 92 -230 298 -814 438 -1240 137 -414 325 -1049 372
-1255 2 -8 20 -78 40 -155 21 -77 39 -151 41 -165 3 -14 9 -38 14 -55 5 -16
11 -41 14 -55 3 -14 7 -34 10 -45 34 -141 154 -716 170 -815 3 -19 8 -47 11
-62 3 -16 7 -40 10 -55 2 -16 7 -39 9 -53 3 -14 8 -43 11 -65 3 -22 10 -65 15
-95 12 -70 16 -97 30 -195 6 -44 13 -93 15 -110 6 -33 25 -181 39 -288 2 -17
7 -63 11 -102 3 -38 8 -81 10 -95 2 -14 7 -56 11 -95 3 -38 8 -81 9 -95 2 -14
6 -59 10 -100 3 -41 8 -93 10 -115 2 -22 7 -76 10 -120 3 -44 8 -105 11 -135
2 -30 7 -89 9 -130 3 -41 7 -106 10 -145 6 -81 13 -184 20 -305 2 -47 7 -123
10 -170 3 -47 7 -128 10 -180 4 -88 8 -162 20 -350 3 -41 7 -118 10 -170 3
-52 8 -122 10 -155 2 -33 7 -112 10 -175 4 -63 8 -125 10 -137 3 -21 0 -23
-43 -24 -26 0 -323 -1 -661 -1 l-613 0 -25 43 c-30 52 -30 54 -38 245 -3 82
-8 176 -10 209 -11 179 -17 265 -20 305 -12 160 -16 209 -20 245 -2 22 -7 69
-10 105 -8 86 -15 158 -19 195 -3 17 -7 63 -11 103 -3 41 -8 81 -10 90 -1 9
-6 48 -10 85 -3 37 -8 76 -10 85 -1 9 -6 44 -9 77 -4 33 -9 74 -11 90 -3 17
-11 77 -20 135 -8 58 -17 128 -21 155 -3 28 -7 52 -9 55 -2 3 -6 30 -10 60 -3
30 -8 62 -10 70 -4 14 -8 36 -20 113 -3 17 -19 106 -36 197 -17 91 -33 176
-35 190 -3 14 -7 33 -10 42 -3 10 -7 30 -10 45 -2 16 -7 39 -10 53 -3 14 -8
35 -10 46 -2 12 -17 77 -33 145 -17 68 -32 135 -35 149 -5 26 -26 109 -69 270
-32 120 -122 426 -137 465 -7 17 -13 37 -15 45 -14 60 -142 418 -225 625 -127
319 -345 783 -480 1024 -290 513 -586 937 -894 1281 -98 109 -421 424 -521
509 -60 52 -121 103 -135 115 -128 109 -487 357 -655 451 -388 217 -888 408
-1205 460 -19 3 -42 8 -50 10 -8 2 -31 7 -50 10 -19 3 -46 8 -60 10 -53 11
-67 13 -130 20 -36 4 -76 9 -90 11 -213 29 -671 23 -879 -10 -14 -3 -62 -10
-106 -16 -44 -7 -88 -14 -97 -16 -73 -16 -132 -28 -135 -26 -2 1 -21 -5 -43
-13 -22 -8 -42 -14 -45 -14 -50 -3 -406 -120 -532 -177 -711 -315 -1271 -796
-1705 -1464 -31 -47 -63 -98 -72 -115 -9 -16 -35 -61 -57 -100 -255 -448 -399
-872 -550 -1610 -11 -55 -22 -107 -24 -115 -14 -64 -77 -341 -81 -360 -4 -14
-7 -167 -8 -340 -2 -293 0 -323 21 -425 13 -60 25 -121 28 -135 3 -14 7 -36
10 -50 4 -22 15 -88 30 -180 2 -14 7 -50 10 -80 4 -30 11 -77 16 -105 5 -27
12 -66 15 -85 11 -66 64 -264 100 -375 204 -620 600 -1198 1134 -1657 150
-129 225 -188 370 -289 70 -50 307 -199 315 -199 2 0 39 -20 81 -45 41 -25 81
-45 87 -45 6 0 18 -6 26 -13 45 -38 484 -219 651 -269 99 -29 232 -66 260 -72
14 -3 77 -16 140 -30 124 -26 160 -32 318 -50 l103 -12 -5 56 c-3 31 -10 97
-16 146 -6 49 -13 107 -15 129 -3 22 -7 51 -10 65 -2 14 -7 50 -10 80 -4 30
-8 66 -10 80 -2 14 -6 50 -10 80 -4 30 -8 66 -10 80 -3 24 -9 77 -21 205 -13
140 -19 456 -10 540 2 17 7 66 11 110 4 44 9 83 11 86 2 4 6 28 9 55 3 27 17
94 31 149 14 55 27 107 29 115 9 43 83 226 123 304 217 422 564 682 1097 821
50 13 101 26 115 29 14 2 48 9 75 14 202 40 513 48 665 17 14 -3 40 -7 59 -10
178 -24 466 -139 651 -260 179 -117 386 -307 540 -495 25 -30 47 -57 50 -60
12 -10 136 -186 177 -249 99 -154 293 -541 293 -584 0 -7 4 -17 8 -22 5 -6 19
-39 31 -75 12 -36 26 -74 31 -85 19 -47 99 -329 114 -405 3 -14 15 -68 26
-120 30 -135 54 -278 75 -435 3 -27 8 -57 10 -65 8 -32 19 -168 19 -241 0
-124 -38 -183 -135 -209 -24 -7 -53 -15 -64 -18 -11 -3 -481 -7 -1045 -8 -564
-2 -1032 -4 -1041 -4 -15 0 -16 -84 -18 -972 0 -535 -2 -1054 -3 -1153 -1
-162 1 -186 20 -239 27 -74 61 -119 116 -151 92 -54 143 -60 491 -57 488 3
3463 2 3640 -2 167 -4 378 -14 412 -21 10 -2 40 -4 67 -4 l48 -1 -6 -88 c-3
-48 -8 -98 -10 -112 -3 -14 -9 -63 -15 -110 -6 -47 -13 -96 -16 -110 -3 -14
-11 -59 -19 -100 -8 -41 -17 -82 -20 -90 -3 -8 -8 -28 -11 -45 -3 -16 -7 -34
-9 -40 -1 -5 -8 -30 -15 -55 -28 -101 -94 -296 -121 -355 -9 -22 -28 -65 -41
-95 -90 -213 -294 -538 -454 -719 -352 -401 -742 -702 -1270 -982 l-114 -60
72 -142 c211 -420 453 -750 708 -966 103 -88 108 -91 204 -153 71 -46 238
-136 265 -143 3 -1 19 -7 35 -14 69 -29 211 -73 275 -85 14 -2 63 -12 110 -21
162 -31 252 -67 339 -135 96 -76 149 -191 201 -435 18 -82 34 -159 37 -170 3
-11 7 -31 10 -45 13 -61 78 -286 115 -395 216 -645 593 -1251 1077 -1729 l89
-89 29 24 c29 25 186 185 248 254 28 31 196 238 243 300 5 6 43 60 85 121 326
472 577 1072 733 1752 27 118 70 335 79 397 10 67 15 75 43 76 15 0 36 2 47 4
11 1 52 6 90 10 39 3 88 10 110 15 22 5 56 12 75 15 86 15 302 78 380 112 114
48 166 74 260 127 307 174 584 446 811 796 134 205 294 514 276 528 -7 5 -57
33 -112 62 -642 343 -1135 766 -1462 1255 -52 78 -193 320 -193 331 0 2 -12
28 -26 57 -75 154 -174 439 -209 602 -58 270 -77 397 -90 597 l-5 78 1983 1
c2699 0 2633 0 2682 24 50 25 70 45 98 98 l22 42 2 1205 2 1205 -1161 0 -1160
0 7 118 c3 66 8 126 10 135 1 10 6 60 10 112 3 52 8 97 10 100 1 3 6 37 10 75
3 39 8 79 10 90 3 11 7 36 9 55 27 188 93 474 161 695 95 311 278 698 441 933
24 35 44 67 44 72 0 6 3 10 8 10 4 0 18 17 32 38 13 20 58 79 99 131 207 263
454 465 731 599 174 84 373 149 515 168 22 3 45 7 52 9 51 17 342 24 464 12
147 -15 420 -74 494 -106 11 -5 47 -19 80 -32 261 -98 542 -306 702 -517 32
-42 61 -78 66 -80 4 -2 7 -8 7 -14 0 -6 11 -25 24 -42 31 -42 120 -217 152
-303 49 -130 92 -291 109 -406 3 -27 8 -57 10 -67 22 -115 23 -468 1 -675 -14
-125 -18 -163 -22 -186 -2 -15 -6 -47 -9 -70 -3 -24 -8 -62 -11 -84 -10 -72
-13 -89 -19 -132 -3 -23 -8 -55 -10 -70 -22 -160 -37 -262 -40 -284 -3 -14 -7
-51 -10 -82 -5 -50 -4 -57 12 -57 10 0 97 18 193 40 188 43 183 42 250 61 25
7 52 14 60 15 91 18 558 186 740 266 596 264 1150 649 1500 1043 386 435 651
941 814 1555 37 141 109 513 104 539 -1 3 1 26 5 51 22 151 31 316 31 555 0
189 -9 440 -18 495 -3 14 -7 52 -11 85 -9 87 -13 114 -31 230 -3 22 -7 49 -9
60 -3 30 -34 181 -51 255 -43 187 -60 250 -111 410 -125 396 -285 742 -490
1059 -64 98 -185 266 -203 281 -3 3 -16 19 -29 35 -111 145 -415 446 -636 630
-33 28 -62 53 -65 56 -27 31 -336 250 -465 329 -70 43 -79 48 -190 110 -265
148 -676 307 -920 356 -11 2 -54 11 -95 19 -41 8 -89 17 -105 19 -39 6 -102
15 -140 21 -111 17 -475 24 -620 12 -312 -27 -597 -92 -920 -211 -148 -54
-522 -234 -596 -287 -15 -10 -30 -19 -33 -19 -10 0 -258 -155 -366 -228 -99
-68 -406 -297 -474 -354 -100 -84 -196 -167 -251 -218 -104 -96 -398 -392
-465 -469 -36 -41 -72 -81 -81 -90 -66 -67 -324 -405 -441 -576 -70 -103 -258
-401 -258 -409 0 -2 -19 -35 -42 -72 -94 -155 -295 -569 -395 -814 -30 -74
-59 -144 -64 -155 -74 -169 -305 -876 -344 -1053 -6 -26 -5 -22 -49 -192 -19
-74 -37 -146 -40 -160 -3 -14 -18 -86 -35 -160 -29 -136 -67 -313 -75 -360 -2
-14 -7 -36 -10 -50 -3 -14 -8 -38 -11 -55 -3 -16 -12 -68 -20 -115 -8 -47 -17
-98 -20 -115 -3 -16 -8 -42 -11 -57 -3 -15 -7 -42 -9 -60 -4 -31 -14 -94 -20
-128 -4 -23 -25 -161 -29 -195 -12 -94 -18 -140 -21 -154 -1 -9 -6 -45 -11
-81 -4 -36 -8 -67 -9 -70 -1 -3 -5 -39 -10 -80 -5 -41 -9 -77 -10 -80 -1 -3
-5 -34 -9 -70 -4 -36 -9 -76 -11 -90 -2 -14 -7 -56 -11 -95 -3 -38 -8 -77 -9
-85 -2 -8 -6 -44 -10 -80 -3 -36 -8 -76 -10 -90 -2 -14 -7 -54 -10 -90 -4 -36
-9 -72 -10 -80 -2 -8 -6 -49 -10 -90 -3 -41 -8 -86 -10 -100 -3 -23 -8 -65
-21 -185 -3 -27 -7 -61 -9 -75 -2 -14 -7 -54 -10 -90 -3 -36 -8 -72 -10 -80
-2 -8 -6 -46 -10 -83 -3 -37 -8 -76 -10 -85 -1 -9 -6 -51 -11 -92 -4 -41 -9
-78 -10 -82 -1 -5 -2 -11 -3 -16 0 -4 -245 -7 -543 -7 l-543 0 -58 28 c-61 31
-103 80 -128 152 -19 56 -16 561 6 1045 13 276 17 352 20 405 2 33 6 107 10
165 3 58 8 128 10 155 3 28 7 79 10 115 10 143 15 207 20 240 2 19 7 71 11
115 3 44 8 87 9 95 2 8 6 49 10 90 4 41 9 83 10 92 2 9 7 48 10 85 4 37 9 76
11 87 2 10 6 44 10 75 3 31 8 63 9 73 2 9 7 38 11 65 3 26 8 57 10 68 2 11 6
38 9 60 3 22 7 51 10 65 7 35 25 139 30 175 24 159 129 626 200 885 87 319
477 1503 828 2515 85 245 185 530 217 620 17 50 33 95 34 100 2 6 6 19 10 30
28 74 39 104 65 182 33 95 36 104 136 388 37 105 78 219 90 255 13 36 42 117
65 180 22 63 43 122 45 130 7 25 55 164 65 185 5 11 60 166 123 345 63 179
127 359 141 400 15 41 45 127 67 190 23 63 54 151 69 195 108 305 174 494 254
731 50 149 93 277 95 285 2 8 19 66 38 129 35 118 103 379 108 415 2 11 13 63
25 115 20 88 33 151 46 225 19 106 44 258 49 300 3 28 8 61 10 75 2 14 7 52
10 85 4 33 9 71 11 85 2 14 6 61 9 105 3 44 8 94 10 110 8 62 18 366 18 535 0
155 -7 342 -18 495 -11 144 -20 243 -30 340 -2 22 -7 65 -10 95 -3 30 -8 71
-10 90 -3 19 -8 55 -10 80 -14 117 -63 420 -100 620 -47 253 -150 689 -205
875 -12 39 -23 78 -25 88 -6 26 -92 305 -125 407 -106 319 -292 803 -401 1038
-16 35 -29 65 -29 67 0 24 -363 751 -467 935 -17 30 -42 75 -56 100 -83 151
-245 421 -370 620 -67 107 -377 572 -386 580 -3 3 -26 34 -50 70 -94 137 -440
592 -642 845 -192 240 -613 759 -634 781 -5 6 -21 26 -35 44 -14 19 -32 41
-40 50 -8 8 -95 116 -193 238 -97 122 -179 222 -181 222 -2 0 -10 -10 -19 -23z"/>
</g>
</svg>
